<svg xmlns="http://www.w3.org/2000/svg" viewBox="0 0 64 64" width="64" height="64">
  <!-- 背景矩形 -->
  <rect x="8" y="8" width="48" height="48" rx="8" fill="#2196F3" />
  
  <!-- 文件夹图标 -->
  <path d="M20 24h24a4 4 0 0 1 4 4v16a4 4 0 0 1-4 4H20a4 4 0 0 1-4-4V28a4 4 0 0 1 4-4z" fill="#FFFFFF" opacity="0.3" />
  <path d="M20 20h16a4 4 0 0 1 4 4v2H16v-2a4 4 0 0 1 4-4z" fill="#FFFFFF" />
  
  <!-- 文档图标 -->
  <path d="M28 34h8v2h-8zM28 38h8v2h-8zM28 42h8v2h-8z" fill="#FFFFFF" />
  
  <!-- 上传箭头 -->
  <path d="M44 22l-6-6v4h-4v4h4v4z" fill="#FFFFFF" />
</svg>